<svg width="257" height="47" viewBox="0 0 257 47" fill="none" xmlns="http://www.w3.org/2000/svg">
<path fill-rule="evenodd" clip-rule="evenodd" d="M23.6509 0C10.6987 0 0.228058 10.3125 0.228058 23.0704C0.228058 33.2685 6.93695 41.9009 16.244 44.9562C17.4076 45.1859 17.8338 44.4598 17.8338 43.849C17.8338 43.3142 17.7955 41.4809 17.7955 39.5708C11.2798 40.9461 9.92294 36.8206 9.92294 36.8206C8.87583 34.1469 7.32434 33.4597 7.32434 33.4597C5.19177 32.0464 7.47968 32.0464 7.47968 32.0464C9.84527 32.1992 11.0866 34.4145 11.0866 34.4145C13.1803 37.9283 16.5542 36.9355 17.9115 36.3242C18.1052 34.8345 18.7261 33.8033 19.3853 33.2305C14.1886 32.6956 8.72097 30.7096 8.72097 21.8479C8.72097 19.327 9.6511 17.2645 11.1249 15.6604C10.8924 15.0876 10.0778 12.719 11.3579 9.54887C11.3579 9.54887 13.3356 8.93762 17.795 11.917C19.7042 11.412 21.6731 11.1551 23.6509 11.1529C25.6286 11.1529 27.6447 11.4206 29.5064 11.917C33.9662 8.93762 35.9439 9.54887 35.9439 9.54887C37.2241 12.719 36.409 15.0876 36.1765 15.6604C37.6891 17.2645 38.5809 19.327 38.5809 21.8479C38.5809 30.7096 33.1133 32.6572 27.8777 33.2305C28.7311 33.9561 29.4676 35.3309 29.4676 37.5083C29.4676 40.602 29.4292 43.085 29.4292 43.8486C29.4292 44.4598 29.8559 45.1859 31.0191 44.9567C40.3261 41.9005 47.035 33.2685 47.035 23.0704C47.0733 10.3125 36.5643 0 23.6509 0Z" fill="#24292F"/>
<path d="M56.5764 37V10.8182H72.8122V14.2188H60.5267V22.196H71.6489V25.5838H60.5267V37H56.5764ZM84.1933 37.3963C82.3523 37.3963 80.7458 36.9744 79.3736 36.1307C78.0015 35.2869 76.9361 34.1065 76.1776 32.5895C75.4191 31.0724 75.0398 29.2997 75.0398 27.2713C75.0398 25.2344 75.4191 23.4531 76.1776 21.9276C76.9361 20.402 78.0015 19.2173 79.3736 18.3736C80.7458 17.5298 82.3523 17.108 84.1933 17.108C86.0342 17.108 87.6407 17.5298 89.0129 18.3736C90.385 19.2173 91.4504 20.402 92.2089 21.9276C92.9674 23.4531 93.3467 25.2344 93.3467 27.2713C93.3467 29.2997 92.9674 31.0724 92.2089 32.5895C91.4504 34.1065 90.385 35.2869 89.0129 36.1307C87.6407 36.9744 86.0342 37.3963 84.1933 37.3963ZM84.206 34.1875C85.3992 34.1875 86.3879 33.8722 87.1719 33.2415C87.956 32.6108 88.5356 31.7713 88.9106 30.723C89.2941 29.6747 89.4859 28.5199 89.4859 27.2585C89.4859 26.0057 89.2941 24.8551 88.9106 23.8068C88.5356 22.75 87.956 21.902 87.1719 21.2628C86.3879 20.6236 85.3992 20.304 84.206 20.304C83.0043 20.304 82.0072 20.6236 81.2146 21.2628C80.4305 21.902 79.8467 22.75 79.4631 23.8068C79.0881 24.8551 78.9006 26.0057 78.9006 27.2585C78.9006 28.5199 79.0881 29.6747 79.4631 30.723C79.8467 31.7713 80.4305 32.6108 81.2146 33.2415C82.0072 33.8722 83.0043 34.1875 84.206 34.1875ZM97.6133 37V17.3636H101.308V20.483H101.512C101.87 19.4261 102.501 18.5952 103.405 17.9901C104.316 17.3764 105.348 17.0696 106.498 17.0696C106.737 17.0696 107.018 17.0781 107.342 17.0952C107.674 17.1122 107.934 17.1335 108.122 17.1591V20.8153C107.968 20.7727 107.696 20.7259 107.304 20.6747C106.912 20.6151 106.52 20.5852 106.128 20.5852C105.224 20.5852 104.419 20.777 103.711 21.1605C103.012 21.5355 102.459 22.0597 102.049 22.733C101.64 23.3977 101.436 24.1562 101.436 25.0085V37H97.6133ZM114.945 30.3395L114.92 25.6733H115.585L123.408 17.3636H127.985L119.062 26.8239H118.461L114.945 30.3395ZM111.43 37V10.8182H115.252V37H111.43ZM123.83 37L116.799 27.6676L119.433 24.9957L128.522 37H123.83ZM146.711 37.4347C145.466 37.4347 144.341 37.2045 143.336 36.7443C142.33 36.2756 141.533 35.598 140.945 34.7116C140.365 33.8253 140.076 32.7386 140.076 31.4517C140.076 30.3437 140.289 29.4318 140.715 28.7159C141.141 28 141.716 27.4332 142.441 27.0156C143.165 26.598 143.975 26.2827 144.87 26.0696C145.765 25.8565 146.677 25.6946 147.606 25.5838C148.782 25.4474 149.736 25.3366 150.469 25.2514C151.202 25.1577 151.735 25.0085 152.067 24.804C152.4 24.5994 152.566 24.267 152.566 23.8068V23.7173C152.566 22.6009 152.25 21.7358 151.62 21.1222C150.998 20.5085 150.069 20.2017 148.833 20.2017C147.546 20.2017 146.532 20.4872 145.79 21.0582C145.057 21.6207 144.55 22.2472 144.269 22.9375L140.677 22.1193C141.103 20.9261 141.725 19.9631 142.543 19.2301C143.37 18.4886 144.32 17.9517 145.394 17.6193C146.468 17.2784 147.597 17.108 148.782 17.108C149.566 17.108 150.397 17.2017 151.275 17.3892C152.161 17.5682 152.988 17.9006 153.755 18.3864C154.53 18.8722 155.165 19.5668 155.66 20.4702C156.154 21.3651 156.401 22.5284 156.401 23.9602V37H152.668V34.3153H152.515C152.267 34.8097 151.897 35.2955 151.402 35.7727C150.908 36.25 150.273 36.6463 149.498 36.9616C148.722 37.277 147.793 37.4347 146.711 37.4347ZM147.542 34.3665C148.598 34.3665 149.502 34.1577 150.252 33.7401C151.01 33.3224 151.586 32.777 151.978 32.1037C152.378 31.4219 152.579 30.6932 152.579 29.9176V27.3864C152.442 27.5227 152.178 27.6506 151.786 27.7699C151.402 27.8807 150.963 27.9787 150.469 28.0639C149.975 28.1406 149.493 28.2131 149.025 28.2812C148.556 28.3409 148.164 28.392 147.848 28.4347C147.107 28.5284 146.429 28.6861 145.816 28.9077C145.211 29.1293 144.725 29.4489 144.358 29.8665C144 30.2756 143.821 30.821 143.821 31.5028C143.821 32.4489 144.171 33.1648 144.87 33.6506C145.569 34.1278 146.459 34.3665 147.542 34.3665ZM161.492 44.3636V17.3636H165.225V20.5469H165.545C165.766 20.1378 166.086 19.6648 166.504 19.1278C166.921 18.5909 167.501 18.1222 168.242 17.7216C168.984 17.3125 169.964 17.108 171.183 17.108C172.768 17.108 174.183 17.5085 175.427 18.3097C176.671 19.1108 177.647 20.2656 178.354 21.7741C179.07 23.2827 179.428 25.098 179.428 27.2202C179.428 29.3423 179.075 31.1619 178.367 32.679C177.66 34.1875 176.688 35.3509 175.452 36.169C174.217 36.9787 172.806 37.3835 171.221 37.3835C170.028 37.3835 169.052 37.1832 168.293 36.7827C167.543 36.3821 166.955 35.9134 166.529 35.3764C166.103 34.8395 165.775 34.3622 165.545 33.9446H165.315V44.3636H161.492ZM165.238 27.1818C165.238 28.5625 165.438 29.7727 165.839 30.8125C166.239 31.8523 166.819 32.6662 167.577 33.2543C168.336 33.8338 169.265 34.1236 170.364 34.1236C171.506 34.1236 172.461 33.821 173.228 33.2159C173.995 32.6023 174.575 31.7713 174.967 30.723C175.367 29.6747 175.568 28.4943 175.568 27.1818C175.568 25.8864 175.372 24.723 174.979 23.6918C174.596 22.6605 174.016 21.8466 173.241 21.25C172.474 20.6534 171.515 20.3551 170.364 20.3551C169.256 20.3551 168.319 20.6406 167.552 21.2116C166.793 21.7827 166.218 22.5795 165.826 23.6023C165.434 24.625 165.238 25.8182 165.238 27.1818ZM183.711 44.3636V17.3636H187.444V20.5469H187.764C187.985 20.1378 188.305 19.6648 188.722 19.1278C189.14 18.5909 189.72 18.1222 190.461 17.7216C191.202 17.3125 192.183 17.108 193.401 17.108C194.987 17.108 196.401 17.5085 197.646 18.3097C198.89 19.1108 199.866 20.2656 200.573 21.7741C201.289 23.2827 201.647 25.098 201.647 27.2202C201.647 29.3423 201.293 31.1619 200.586 32.679C199.879 34.1875 198.907 35.3509 197.671 36.169C196.435 36.9787 195.025 37.3835 193.44 37.3835C192.247 37.3835 191.271 37.1832 190.512 36.7827C189.762 36.3821 189.174 35.9134 188.748 35.3764C188.322 34.8395 187.994 34.3622 187.764 33.9446H187.533V44.3636H183.711ZM187.457 27.1818C187.457 28.5625 187.657 29.7727 188.058 30.8125C188.458 31.8523 189.038 32.6662 189.796 33.2543C190.555 33.8338 191.484 34.1236 192.583 34.1236C193.725 34.1236 194.68 33.821 195.447 33.2159C196.214 32.6023 196.793 31.7713 197.185 30.723C197.586 29.6747 197.786 28.4943 197.786 27.1818C197.786 25.8864 197.59 24.723 197.198 23.6918C196.815 22.6605 196.235 21.8466 195.46 21.25C194.693 20.6534 193.734 20.3551 192.583 20.3551C191.475 20.3551 190.538 20.6406 189.771 21.2116C189.012 21.7827 188.437 22.5795 188.045 23.6023C187.653 24.625 187.457 25.8182 187.457 27.1818Z" fill="black"/>
<path d="M220.817 18.6368L221.817 21.3018C221.855 21.4022 221.952 21.4687 222.061 21.4687C222.169 21.4687 222.267 21.4022 222.304 21.3018L223.304 18.6368C224.114 16.4792 225.845 14.7785 228.04 13.983L230.752 13.0001C230.854 12.9631 230.921 12.8676 230.921 12.7608C230.921 12.654 230.854 12.5585 230.752 12.5215L228.04 11.5386C225.844 10.7429 224.114 9.04233 223.304 6.88495L222.304 4.21987C222.267 4.11969 222.169 4.05315 222.061 4.05315C221.952 4.05315 221.855 4.11969 221.817 4.21987L220.817 6.88495C220.007 9.04233 218.277 10.7429 216.082 11.5386L213.37 12.5215C213.268 12.5585 213.2 12.654 213.2 12.7608C213.2 12.8676 213.268 12.9631 213.37 13.0001L216.081 13.983C218.277 14.7785 220.007 16.4791 220.817 18.6368Z" fill="#E16A27"/>
<path d="M242.804 29.8934L240.092 28.9106C237.897 28.115 236.166 26.4143 235.357 24.257L234.356 21.5919C234.319 21.4917 234.222 21.4252 234.113 21.4252C234.004 21.4252 233.907 21.4917 233.87 21.5919L232.869 24.2568C232.06 26.4143 230.329 28.115 228.134 28.9106L225.422 29.8934C225.32 29.9303 225.252 30.0259 225.252 30.1327C225.252 30.2394 225.32 30.335 225.422 30.3719L228.134 31.355C230.329 32.1506 232.06 33.8513 232.869 36.0086L233.87 38.6739C233.907 38.774 234.004 38.8406 234.113 38.8406C234.222 38.8406 234.319 38.774 234.356 38.6739L235.357 36.0086C236.166 33.8513 237.897 32.1505 240.092 31.355L242.804 30.3719C242.906 30.335 242.974 30.2394 242.974 30.1327C242.974 30.0259 242.906 29.9303 242.804 29.8934Z" fill="#E16A27"/>
<path d="M256.839 18.4941L254.996 17.8261C253.504 17.2854 252.328 16.1296 251.778 14.6634L251.098 12.8522C251.072 12.7842 251.006 12.7388 250.933 12.7388C250.859 12.7388 250.793 12.7842 250.767 12.8522L250.087 14.6633C249.537 16.1296 248.361 17.2854 246.869 17.8261L245.026 18.4941C244.957 18.5192 244.911 18.584 244.911 18.6566C244.911 18.7291 244.957 18.7942 245.026 18.8193L246.869 19.4871C248.361 20.028 249.537 21.1838 250.087 22.6499L250.767 24.4614C250.793 24.5294 250.859 24.5748 250.933 24.5748C251.006 24.5748 251.072 24.5294 251.098 24.4614L251.778 22.6499C252.328 21.1836 253.504 20.028 254.996 19.4872L256.839 18.8193C256.908 18.7942 256.954 18.7291 256.954 18.6566C256.954 18.584 256.908 18.5192 256.839 18.4941Z" fill="#E16A27"/>
<path d="M252.374 42.3376L251.089 41.8716C250.048 41.4944 249.228 40.6883 248.844 39.6657L248.37 38.4024C248.352 38.355 248.306 38.3234 248.254 38.3234C248.203 38.3234 248.157 38.355 248.139 38.4024L247.665 39.6657C247.281 40.6884 246.461 41.4946 245.42 41.8716L244.134 42.3376C244.086 42.3551 244.054 42.4004 244.054 42.4511C244.054 42.5017 244.086 42.547 244.134 42.5645L245.42 43.0305C246.461 43.4077 247.281 44.214 247.665 45.2367L248.139 46.5001C248.157 46.5476 248.203 46.5791 248.254 46.5791C248.306 46.5791 248.352 46.5476 248.37 46.5001L248.844 45.2367C249.228 44.214 250.048 43.4077 251.089 43.0305L252.375 42.5645C252.423 42.547 252.455 42.5017 252.455 42.4511C252.455 42.4004 252.423 42.3551 252.374 42.3376Z" fill="#E16A27"/>
<path d="M242.893 6.01436L241.607 5.54842C240.567 5.17126 239.747 4.36512 239.363 3.34237L238.889 2.07916C238.871 2.03154 238.825 2 238.773 2C238.722 2 238.676 2.03154 238.658 2.07901L238.184 3.34207C237.8 4.36481 236.98 5.17111 235.939 5.54827L234.653 6.01421C234.605 6.03163 234.573 6.07699 234.573 6.12761C234.573 6.17823 234.605 6.22359 234.653 6.24102L235.939 6.7071C236.98 7.08426 237.8 7.89056 238.184 8.91345L238.658 10.1767C238.676 10.2241 238.722 10.2557 238.773 10.2557C238.825 10.2557 238.871 10.2241 238.889 10.1767L239.363 8.9133C239.747 7.89041 240.567 7.08426 241.608 6.70725L242.893 6.24117C242.942 6.22374 242.974 6.17838 242.974 6.12776C242.974 6.07714 242.942 6.03178 242.893 6.01436Z" fill="#E16A27"/>
<path d="M227.124 39.7403L225.507 39.1545C224.198 38.6802 223.166 37.666 222.683 36.3795L222.087 34.7903C222.065 34.7307 222.007 34.6909 221.942 34.6909C221.877 34.6909 221.819 34.7307 221.797 34.7903L221.2 36.3793C220.718 37.6658 219.686 38.68 218.377 39.1545L216.76 39.7403C216.699 39.7622 216.659 39.8193 216.659 39.883C216.659 39.9467 216.699 40.0038 216.76 40.0257L218.377 40.6118C219.686 41.0861 220.718 42.1003 221.2 43.3868L221.797 44.976C221.819 45.0358 221.877 45.0754 221.942 45.0754C222.007 45.0754 222.065 45.0358 222.087 44.976L222.683 43.3867C223.166 42.1003 224.198 41.0863 225.507 40.6118L227.124 40.0257C227.185 40.0038 227.225 39.9467 227.225 39.883C227.225 39.8193 227.185 39.7622 227.124 39.7403Z" fill="#E16A27"/>
</svg>
