<svg width="253" height="47" viewBox="0 0 253 47" fill="none" xmlns="http://www.w3.org/2000/svg">
<g clip-path="url(#clip0_3_3)">
<path fill-rule="evenodd" clip-rule="evenodd" d="M22.9315 0C10.251 0 0 10.3125 0 23.0705C0 33.2686 6.56814 41.9011 15.6799 44.9564C16.8191 45.1861 17.2364 44.46 17.2364 43.8492C17.2364 43.3144 17.1988 41.4811 17.1988 39.5709C10.8199 40.9462 9.49149 36.8208 9.49149 36.8208C8.46635 34.147 6.94741 33.4598 6.94741 33.4598C4.85957 32.0466 7.09949 32.0466 7.09949 32.0466C9.41545 32.1994 10.6307 34.4147 10.6307 34.4147C12.6805 37.9284 15.9836 36.9356 17.3124 36.3244C17.5021 34.8347 18.1099 33.8034 18.7553 33.2306C13.6676 32.6958 8.31474 30.7097 8.31474 21.848C8.31474 19.327 9.22535 17.2645 10.6682 15.6605C10.4406 15.0877 9.6431 12.7191 10.8964 9.54891C10.8964 9.54891 12.8326 8.93766 17.1984 11.917C19.0675 11.412 20.9951 11.1551 22.9315 11.153C24.8677 11.153 26.8415 11.4206 28.6641 11.917C33.0303 8.93766 34.9666 9.54891 34.9666 9.54891C36.2198 12.7191 35.4219 15.0877 35.1942 15.6605C36.6751 17.2645 37.5482 19.327 37.5482 21.848C37.5482 30.7097 32.1953 32.6573 27.0696 33.2306C27.9051 33.9562 28.6261 35.3311 28.6261 37.5084C28.6261 40.6022 28.5885 43.0852 28.5885 43.8487C28.5885 44.46 29.0063 45.1861 30.145 44.9569C39.2568 41.9006 45.8249 33.2686 45.8249 23.0705C45.8625 10.3125 35.574 0 22.9315 0Z" fill="white"/>
</g>
<path d="M78.1562 17.696C78.0199 16.4858 77.4574 15.5483 76.4688 14.8835C75.4801 14.2102 74.2358 13.8736 72.7358 13.8736C71.6619 13.8736 70.733 14.044 69.9489 14.3849C69.1648 14.7173 68.5554 15.1776 68.1207 15.7656C67.6946 16.3452 67.4815 17.0057 67.4815 17.7472C67.4815 18.3693 67.6264 18.9062 67.9162 19.358C68.2145 19.8097 68.6023 20.1889 69.0795 20.4957C69.5653 20.794 70.0852 21.0455 70.6392 21.25C71.1932 21.446 71.7259 21.608 72.2372 21.7358L74.794 22.4006C75.6293 22.6051 76.4858 22.8821 77.3636 23.2315C78.2415 23.581 79.0554 24.0412 79.8054 24.6122C80.5554 25.1832 81.1605 25.8906 81.6207 26.7344C82.0895 27.5781 82.3239 28.5881 82.3239 29.7642C82.3239 31.2472 81.9403 32.5639 81.1733 33.7145C80.4148 34.8651 79.3111 35.7727 77.8622 36.4375C76.4219 37.1023 74.679 37.4347 72.6335 37.4347C70.6733 37.4347 68.9773 37.1236 67.5455 36.5014C66.1136 35.8793 64.9929 34.9972 64.1832 33.8551C63.3736 32.7045 62.9261 31.3409 62.8409 29.7642H66.804C66.8807 30.7102 67.1875 31.4986 67.7244 32.1293C68.2699 32.7514 68.9645 33.2159 69.8082 33.5227C70.6605 33.821 71.5938 33.9702 72.608 33.9702C73.7244 33.9702 74.7173 33.7955 75.5866 33.446C76.4645 33.0881 77.1548 32.5937 77.6577 31.9631C78.1605 31.3239 78.4119 30.5781 78.4119 29.7259C78.4119 28.9503 78.1903 28.3153 77.7472 27.821C77.3125 27.3267 76.7202 26.9176 75.9702 26.5938C75.2287 26.2699 74.3892 25.9844 73.4517 25.7372L70.358 24.8935C68.2614 24.3224 66.5994 23.483 65.3722 22.375C64.1534 21.267 63.544 19.8011 63.544 17.9773C63.544 16.4687 63.9531 15.152 64.7713 14.027C65.5895 12.902 66.6974 12.0284 68.0952 11.4062C69.4929 10.7756 71.0696 10.4602 72.8253 10.4602C74.598 10.4602 76.1619 10.7713 77.517 11.3935C78.8807 12.0156 79.9545 12.8722 80.7386 13.9631C81.5227 15.0455 81.9318 16.2898 81.9659 17.696H78.1562ZM95.9038 17.3636V20.4318H85.1779V17.3636H95.9038ZM88.0543 12.6591H91.8768V31.2344C91.8768 31.9759 91.9876 32.5341 92.2092 32.9091C92.4308 33.2756 92.7163 33.527 93.0657 33.6634C93.4237 33.7912 93.8114 33.8551 94.229 33.8551C94.5359 33.8551 94.8043 33.8338 95.0344 33.7912C95.2646 33.7486 95.4435 33.7145 95.5714 33.6889L96.2617 36.8466C96.0401 36.9318 95.7248 37.017 95.3157 37.1023C94.9066 37.196 94.3952 37.2472 93.7816 37.2557C92.7759 37.2727 91.8384 37.0938 90.9691 36.7188C90.0998 36.3438 89.3967 35.7642 88.8597 34.9801C88.3228 34.196 88.0543 33.2116 88.0543 32.027V12.6591ZM105.847 37.4347C104.602 37.4347 103.477 37.2045 102.472 36.7443C101.466 36.2756 100.669 35.598 100.081 34.7116C99.5014 33.8253 99.2116 32.7386 99.2116 31.4517C99.2116 30.3437 99.4247 29.4318 99.8509 28.7159C100.277 28 100.852 27.4332 101.577 27.0156C102.301 26.598 103.111 26.2827 104.006 26.0696C104.901 25.8565 105.813 25.6946 106.741 25.5838C107.918 25.4474 108.872 25.3366 109.605 25.2514C110.338 25.1577 110.871 25.0085 111.203 24.804C111.536 24.5994 111.702 24.267 111.702 23.8068V23.7173C111.702 22.6009 111.386 21.7358 110.756 21.1222C110.134 20.5085 109.205 20.2017 107.969 20.2017C106.682 20.2017 105.668 20.4872 104.926 21.0582C104.193 21.6207 103.686 22.2472 103.405 22.9375L99.8125 22.1193C100.239 20.9261 100.861 19.9631 101.679 19.2301C102.506 18.4886 103.456 17.9517 104.53 17.6193C105.604 17.2784 106.733 17.108 107.918 17.108C108.702 17.108 109.533 17.2017 110.411 17.3892C111.297 17.5682 112.124 17.9006 112.891 18.3864C113.666 18.8722 114.301 19.5668 114.795 20.4702C115.29 21.3651 115.537 22.5284 115.537 23.9602V37H111.804V34.3153H111.651C111.403 34.8097 111.033 35.2955 110.538 35.7727C110.044 36.25 109.409 36.6463 108.634 36.9616C107.858 37.277 106.929 37.4347 105.847 37.4347ZM106.678 34.3665C107.734 34.3665 108.638 34.1577 109.388 33.7401C110.146 33.3224 110.722 32.777 111.114 32.1037C111.514 31.4219 111.714 30.6932 111.714 29.9176V27.3864C111.578 27.5227 111.314 27.6506 110.922 27.7699C110.538 27.8807 110.099 27.9787 109.605 28.0639C109.111 28.1406 108.629 28.2131 108.161 28.2812C107.692 28.3409 107.3 28.392 106.984 28.4347C106.243 28.5284 105.565 28.6861 104.952 28.9077C104.347 29.1293 103.861 29.4489 103.494 29.8665C103.136 30.2756 102.957 30.821 102.957 31.5028C102.957 32.4489 103.307 33.1648 104.006 33.6506C104.705 34.1278 105.595 34.3665 106.678 34.3665ZM120.628 37V17.3636H124.323V20.483H124.527C124.885 19.4261 125.516 18.5952 126.419 17.9901C127.331 17.3764 128.363 17.0696 129.513 17.0696C129.752 17.0696 130.033 17.0781 130.357 17.0952C130.689 17.1122 130.949 17.1335 131.137 17.1591V20.8153C130.983 20.7727 130.711 20.7259 130.319 20.6747C129.926 20.6151 129.534 20.5852 129.142 20.5852C128.239 20.5852 127.434 20.777 126.726 21.1605C126.027 21.5355 125.473 22.0597 125.064 22.733C124.655 23.3977 124.451 24.1562 124.451 25.0085V37H120.628ZM143.972 37V17.3636H147.641V20.5597H147.884C148.293 19.4773 148.962 18.6335 149.891 18.0284C150.82 17.4148 151.932 17.108 153.228 17.108C154.54 17.108 155.64 17.4148 156.526 18.0284C157.421 18.642 158.081 19.4858 158.507 20.5597H158.712C159.181 19.5114 159.926 18.6761 160.949 18.054C161.972 17.4233 163.191 17.108 164.605 17.108C166.387 17.108 167.84 17.6662 168.965 18.7827C170.098 19.8991 170.665 21.5824 170.665 23.8324V37H166.843V24.1903C166.843 22.8608 166.48 21.8977 165.756 21.3011C165.032 20.7045 164.167 20.4062 163.161 20.4062C161.917 20.4062 160.949 20.7898 160.259 21.5568C159.569 22.3153 159.223 23.2912 159.223 24.4844V37H155.414V23.9474C155.414 22.8821 155.081 22.0256 154.417 21.3778C153.752 20.7301 152.887 20.4062 151.821 20.4062C151.097 20.4062 150.428 20.598 149.814 20.9815C149.209 21.3565 148.719 21.8807 148.344 22.554C147.978 23.2273 147.794 24.0071 147.794 24.8935V37H143.972ZM184.251 37.3963C182.317 37.3963 180.651 36.983 179.253 36.1562C177.864 35.321 176.79 34.1491 176.031 32.6406C175.281 31.1236 174.906 29.3466 174.906 27.3097C174.906 25.2983 175.281 23.5256 176.031 21.9915C176.79 20.4574 177.847 19.2599 179.202 18.3991C180.565 17.5384 182.159 17.108 183.983 17.108C185.091 17.108 186.165 17.2912 187.205 17.6577C188.244 18.0241 189.178 18.5994 190.004 19.3835C190.831 20.1676 191.483 21.1861 191.96 22.4389C192.438 23.6832 192.676 25.196 192.676 26.9773V28.3324H177.067V25.4688H188.93C188.93 24.4631 188.726 23.5724 188.317 22.7969C187.908 22.0128 187.332 21.3949 186.591 20.9432C185.858 20.4915 184.997 20.2656 184.009 20.2656C182.935 20.2656 181.997 20.5298 181.196 21.0582C180.403 21.5781 179.79 22.2599 179.355 23.1037C178.929 23.9389 178.716 24.8466 178.716 25.8267V28.0639C178.716 29.3764 178.946 30.4929 179.406 31.4134C179.875 32.3338 180.527 33.0369 181.362 33.5227C182.197 34 183.173 34.2386 184.29 34.2386C185.014 34.2386 185.675 34.1364 186.271 33.9318C186.868 33.7187 187.384 33.4034 187.818 32.9858C188.253 32.5682 188.585 32.0526 188.815 31.4389L192.433 32.0909C192.143 33.1562 191.624 34.0895 190.874 34.8906C190.132 35.6832 189.199 36.3011 188.074 36.7443C186.957 37.179 185.683 37.3963 184.251 37.3963Z" fill="white"/>
<path d="M217.486 18.6368L218.469 21.3018C218.506 21.4022 218.601 21.4687 218.708 21.4687C218.815 21.4687 218.91 21.4022 218.947 21.3018L219.93 18.6368C220.726 16.4792 222.427 14.7785 224.584 13.983L227.249 13.0001C227.349 12.9631 227.416 12.8676 227.416 12.7608C227.416 12.654 227.349 12.5585 227.249 12.5215L224.584 11.5386C222.426 10.7429 220.726 9.04233 219.93 6.88494L218.947 4.21987C218.91 4.11969 218.815 4.05314 218.708 4.05314C218.601 4.05314 218.506 4.11969 218.469 4.21987L217.486 6.88494C216.69 9.04233 214.989 10.7429 212.832 11.5386L210.167 12.5215C210.067 12.5585 210 12.654 210 12.7608C210 12.8676 210.067 12.9631 210.167 13.0001L212.832 13.983C214.989 14.7785 216.69 16.4791 217.486 18.6368Z" fill="#F4F85C"/>
<path d="M239.093 29.8934L236.428 28.9106C234.271 28.115 232.57 26.4143 231.775 24.257L230.792 21.5919C230.755 21.4917 230.659 21.4252 230.552 21.4252C230.446 21.4252 230.35 21.4917 230.313 21.5919L229.33 24.2568C228.535 26.4143 226.834 28.115 224.676 28.9106L222.011 29.8934C221.911 29.9303 221.845 30.0259 221.845 30.1327C221.845 30.2394 221.911 30.335 222.011 30.3719L224.677 31.355C226.834 32.1506 228.535 33.8513 229.33 36.0086L230.313 38.6739C230.35 38.774 230.446 38.8406 230.552 38.8406C230.659 38.8406 230.755 38.774 230.792 38.6739L231.775 36.0086C232.57 33.8513 234.271 32.1505 236.428 31.355L239.094 30.3719C239.194 30.335 239.26 30.2394 239.26 30.1327C239.26 30.0259 239.194 29.9303 239.093 29.8934Z" fill="#F4F85C"/>
<path d="M252.887 18.4941L251.075 17.8261C249.609 17.2854 248.453 16.1296 247.913 14.6634L247.245 12.8522C247.219 12.7842 247.155 12.7388 247.082 12.7388C247.009 12.7388 246.945 12.7842 246.919 12.8522L246.251 14.6633C245.711 16.1296 244.555 17.2854 243.089 17.8261L241.277 18.4941C241.209 18.5192 241.164 18.584 241.164 18.6566C241.164 18.7291 241.209 18.7942 241.277 18.8193L243.089 19.4871C244.555 20.028 245.711 21.1838 246.251 22.6499L246.919 24.4614C246.945 24.5294 247.009 24.5748 247.082 24.5748C247.155 24.5748 247.219 24.5294 247.245 24.4614L247.913 22.6499C248.453 21.1836 249.609 20.028 251.075 19.4872L252.887 18.8193C252.955 18.7942 253 18.7291 253 18.6566C253 18.584 252.955 18.5192 252.887 18.4941Z" fill="#F4F85C"/>
<path d="M248.499 42.3376L247.235 41.8716C246.213 41.4944 245.407 40.6883 245.029 39.6657L244.563 38.4024C244.546 38.355 244.501 38.3234 244.45 38.3234C244.399 38.3234 244.354 38.355 244.337 38.4024L243.87 39.6657C243.493 40.6884 242.687 41.4946 241.665 41.8716L240.401 42.3376C240.354 42.3551 240.322 42.4004 240.322 42.4511C240.322 42.5017 240.354 42.547 240.401 42.5645L241.664 43.0305C242.687 43.4077 243.493 44.214 243.871 45.2367L244.337 46.5001C244.354 46.5476 244.399 46.5791 244.45 46.5791C244.501 46.5791 244.546 46.5476 244.563 46.5001L245.03 45.2367C245.407 44.214 246.213 43.4077 247.236 43.0305L248.499 42.5645C248.547 42.547 248.578 42.5017 248.578 42.4511C248.578 42.4004 248.547 42.3551 248.499 42.3376Z" fill="#F4F85C"/>
<path d="M239.181 6.01436L237.918 5.54842C236.895 5.17126 236.089 4.36512 235.712 3.34237L235.246 2.07916C235.228 2.03154 235.183 2 235.132 2C235.082 2 235.036 2.03154 235.019 2.07901L234.553 3.34207C234.176 4.36481 233.37 5.17111 232.347 5.54827L231.083 6.01421C231.036 6.03163 231.004 6.07699 231.004 6.12761C231.004 6.17823 231.036 6.22359 231.083 6.24102L232.347 6.7071C233.37 7.08426 234.176 7.89056 234.553 8.91345L235.019 10.1767C235.036 10.2241 235.082 10.2557 235.132 10.2557C235.183 10.2557 235.228 10.2241 235.246 10.1767L235.712 8.9133C236.089 7.89041 236.895 7.08426 237.918 6.70725L239.181 6.24117C239.229 6.22374 239.26 6.17838 239.26 6.12776C239.26 6.07714 239.229 6.03178 239.181 6.01436Z" fill="#F4F85C"/>
<path d="M223.684 39.7403L222.095 39.1545C220.809 38.6802 219.794 37.666 219.32 36.3795L218.734 34.7903C218.712 34.7307 218.655 34.6909 218.591 34.6909C218.527 34.6909 218.47 34.7307 218.448 34.7903L217.862 36.3793C217.388 37.6658 216.374 38.68 215.087 39.1545L213.498 39.7403C213.438 39.7622 213.399 39.8193 213.399 39.883C213.399 39.9467 213.439 40.0038 213.498 40.0257L215.087 40.6118C216.374 41.0861 217.388 42.1003 217.862 43.3868L218.448 44.976C218.47 45.0358 218.527 45.0754 218.591 45.0754C218.655 45.0754 218.712 45.0358 218.734 44.976L219.32 43.3867C219.794 42.1003 220.808 41.0863 222.095 40.6118L223.684 40.0257C223.744 40.0038 223.783 39.9467 223.783 39.883C223.783 39.8193 223.744 39.7622 223.684 39.7403Z" fill="#F4F85C"/>
<defs>
<clipPath id="clip0_3_3">
<rect width="46" height="45" fill="white"/>
</clipPath>
</defs>
</svg>
