<?xml version="1.0" encoding="UTF-8" standalone="no"?>
<svg
   xmlns:dc="http://purl.org/dc/elements/1.1/"
   xmlns:cc="http://creativecommons.org/ns#"
   xmlns:rdf="http://www.w3.org/1999/02/22-rdf-syntax-ns#"
   xmlns:svg="http://www.w3.org/2000/svg"
   xmlns="http://www.w3.org/2000/svg"
   xmlns:sodipodi="http://sodipodi.sourceforge.net/DTD/sodipodi-0.dtd"
   xmlns:inkscape="http://www.inkscape.org/namespaces/inkscape"
   inkscape:export-ydpi="96"
   inkscape:export-xdpi="96"
   inkscape:export-filename="C:\Users\misha\Desktop\react-flutter-ionic\resources\icon.png"
   inkscape:version="1.0 (4035a4fb49, 2020-05-01)"
   sodipodi:docname="react.svg"
   id="svg10"
   version="1.1"
   preserveAspectRatio="xMinYMin meet"
   viewBox="0 0 104.8576 104.86198"
   height="1024"
   width="1024">
  <metadata
     id="metadata16">
    <rdf:RDF>
      <cc:Work
         rdf:about="">
        <dc:format>image/svg+xml</dc:format>
        <dc:type
           rdf:resource="http://purl.org/dc/dcmitype/StillImage" />
        <dc:title></dc:title>
      </cc:Work>
    </rdf:RDF>
  </metadata>
  <defs
     id="defs14" />
  <sodipodi:namedview
     inkscape:document-rotation="0"
     inkscape:current-layer="svg10"
     inkscape:window-maximized="1"
     inkscape:window-y="14"
     inkscape:window-x="-8"
     inkscape:cy="264.90965"
     inkscape:cx="1020.1106"
     inkscape:zoom="0.4176"
     fit-margin-bottom="0"
     fit-margin-right="0"
     fit-margin-left="0"
     fit-margin-top="0"
     showgrid="false"
     id="namedview12"
     inkscape:window-height="987"
     inkscape:window-width="1680"
     inkscape:pageshadow="2"
     inkscape:pageopacity="0"
     guidetolerance="10"
     gridtolerance="10"
     objecttolerance="10"
     borderopacity="1"
     bordercolor="#666666"
     pagecolor="#ffffff" />
  <g
     transform="matrix(0.41257926,0,0,0.41257926,-0.05528056,5.2415654)"
     id="g837">
    <path
       d="m 0,113.96543 c 0,19.215 18.763,37.152 48.343,47.263 -5.907,29.737 -1.058,53.706 15.136,63.045 16.645,9.6 41.443,2.955 64.98,-17.62 22.943,19.744 46.13,27.514 62.31,18.148 16.63,-9.627 21.687,-35.221 15.617,-65.887 30.81,-10.186 48.044,-25.481 48.044,-44.949 0,-18.768997 -18.797,-35.005997 -47.979,-45.051997 6.535,-31.933 0.998,-55.32 -15.867,-65.0450003 -16.259,-9.376 -39.716,-1.204 -62.996,19.0560003 C 103.368,1.4204327 80.143,-5.1445673 63.296,4.6074327 47.052,14.010433 42.417,38.415433 48.343,68.702433 19.761,78.667433 0,95.272433 0,113.96543 Z"
       id="path2"
       inkscape:connector-curvature="0"
       style="fill:#ffffff" />
    <path
       d="m 200.271,78.889433 a 151.364,151.364 0 0 0 -7.274,-2.292 137.5,137.5 0 0 0 1.124,-4.961 c 5.506,-26.728 1.906,-48.26 -10.388,-55.348 -11.787,-6.7980003 -31.065,0.29 -50.535,17.233 a 151.136,151.136 0 0 0 -5.626,5.163 137.573,137.573 0 0 0 -3.744,-3.458 c -20.405,-18.118 -40.858,-25.7520003 -53.139,-18.643 -11.776,6.817 -15.264,27.06 -10.307,52.39 a 150.91,150.91 0 0 0 1.67,7.484 c -2.894,0.822 -5.689,1.698 -8.363,2.63 -23.922,8.34 -39.2,21.411997 -39.2,34.969997 0,14.004 16.4,28.05 41.318,36.566 a 128.44,128.44 0 0 0 6.11,1.91 147.813,147.813 0 0 0 -1.775,8.067 c -4.726,24.89 -1.035,44.653 10.71,51.428 12.131,6.995 32.491,-0.195 52.317,-17.525 1.567,-1.37 3.14,-2.823 4.715,-4.346 a 148.34,148.34 0 0 0 6.108,5.573 c 19.204,16.525 38.17,23.198 49.905,16.405 12.12,-7.016 16.058,-28.247 10.944,-54.078 -0.39,-1.973 -0.845,-3.988 -1.355,-6.04 1.43,-0.422 2.833,-0.858 4.202,-1.312 25.904,-8.582 42.757,-22.457 42.757,-36.648 0,-13.607 -15.77,-26.766997 -40.174,-35.167997 z"
       id="path4"
       inkscape:connector-curvature="0"
       style="fill:#53c1de" />
    <path
       d="m 194.652,141.54343 c -1.235,0.409 -2.503,0.804 -3.795,1.187 -2.86,-9.053 -6.72,-18.68 -11.442,-28.625 4.507,-9.71 8.217,-19.212997 10.997,-28.207997 2.311,0.67 4.555,1.375 6.717,2.12 20.91,7.197 33.664,17.839997 33.664,26.039997 0,8.735 -13.775,20.075 -36.14,27.486 z m -9.28,18.389 c 2.261,11.422 2.584,21.749 1.086,29.822 -1.346,7.254 -4.052,12.09 -7.398,14.027 -7.121,4.122 -22.35,-1.236 -38.772,-15.368 -1.883,-1.62 -3.78,-3.35 -5.682,-5.18 6.367,-6.964 12.73,-15.06 18.94,-24.05 10.924,-0.969 21.244,-2.554 30.603,-4.717 0.46,1.86 0.87,3.683 1.223,5.466 z m -93.85,43.137 c -6.957,2.457 -12.498,2.527 -15.847,0.596 -7.128,-4.11 -10.09,-19.98 -6.049,-41.265 a 138.507,138.507 0 0 1 1.65,-7.502 c 9.255,2.047 19.5,3.52 30.45,4.408 6.251,8.797 12.798,16.883 19.396,23.964 a 118.863,118.863 0 0 1 -4.305,3.964 c -8.767,7.664 -17.552,13.1 -25.294,15.835 z m -32.593,-61.58 c -11.018,-3.766 -20.117,-8.66 -26.354,-14 -5.604,-4.8 -8.434,-9.565 -8.434,-13.432 0,-8.227 12.267,-18.721997 32.726,-25.854997 a 139.276,139.276 0 0 1 7.777,-2.447 c 2.828,9.197 6.537,18.812997 11.013,28.536997 -4.534,9.869 -8.296,19.638 -11.15,28.943 a 118.908,118.908 0 0 1 -5.578,-1.746 z M 69.855,67.119433 c -4.247,-21.703 -1.427,-38.074 5.67,-42.182 7.56,-4.376 24.275,1.864 41.893,17.507 1.126,1 2.257,2.047 3.39,3.13 -6.564,7.049 -13.051,15.074 -19.248,23.82 -10.627,0.985 -20.8,2.567 -30.152,4.686 a 141.525,141.525 0 0 1 -1.553,-6.962 z m 97.467,24.067 a 306.982,306.982 0 0 0 -6.871,-11.3 c 7.21,0.91 14.117,2.12 20.603,3.601 -1.947,6.241 -4.374,12.767 -7.232,19.456997 a 336.42,336.42 0 0 0 -6.5,-11.757997 z m -39.747,-38.714 c 4.452,4.823 8.911,10.209 13.297,16.052 a 284.245,284.245 0 0 0 -26.706,-0.006 c 4.39,-5.789 8.887,-11.167 13.409,-16.046 z m -40.002,38.78 a 285.24,285.24 0 0 0 -6.378,11.684997 c -2.811,-6.666997 -5.216,-13.221997 -7.18,-19.551997 6.447,-1.443 13.322,-2.622 20.485,-3.517 a 283.79,283.79 0 0 0 -6.927,11.384 z m 7.133,57.682997 c -7.4,-0.826 -14.379,-1.945 -20.824,-3.348 1.995,-6.442 4.453,-13.138 7.324,-19.948 a 283.494,283.494 0 0 0 6.406,11.692 285.27,285.27 0 0 0 7.094,11.604 z m 33.136,27.389 c -4.575,-4.937 -9.138,-10.397 -13.595,-16.27 4.326,0.17 8.737,0.256 13.22,0.256 4.606,0 9.159,-0.103 13.64,-0.303 -4.4,5.98 -8.843,11.448 -13.265,16.317 z m 46.072,-51.032 c 3.02,6.884 5.566,13.544 7.588,19.877 -6.552,1.495 -13.625,2.699 -21.078,3.593 a 337.537,337.537 0 0 0 6.937,-11.498 306.632,306.632 0 0 0 6.553,-11.972 z m -14.915,7.15 a 316.478,316.478 0 0 1 -10.84,17.49 c -6.704,0.479 -13.632,0.726 -20.692,0.726 -7.031,0 -13.871,-0.219 -20.458,-0.646 a 273.798,273.798 0 0 1 -11.043,-17.517 271.334,271.334 0 0 1 -9.64,-18.206 273.864,273.864 0 0 1 9.611,-18.215997 v 0.002 a 271.252,271.252 0 0 1 10.956,-17.442 c 6.72,-0.508 13.61,-0.774 20.575,-0.774 6.996,0 13.895,0.268 20.613,0.78 a 290.704,290.704 0 0 1 10.887,17.383 316.418,316.418 0 0 1 9.741,18.129997 290.806,290.806 0 0 1 -9.709,18.29 z M 178.912,24.650433 c 7.566,4.364 10.509,21.961 5.755,45.038 a 127.525,127.525 0 0 1 -1.016,4.492 c -9.374,-2.163 -19.554,-3.773 -30.212,-4.773 -6.209,-8.841 -12.642,-16.88 -19.1,-23.838 a 141.92,141.92 0 0 1 5.196,-4.766 c 16.682,-14.518 32.273,-20.25 39.377,-16.153 z"
       id="path6"
       inkscape:connector-curvature="0"
       style="fill:#ffffff" />
    <path
       d="m 127.467,93.880433 c 11.144,0 20.177,9.033997 20.177,20.176997 0,11.144 -9.033,20.178 -20.177,20.178 -11.143,0 -20.177,-9.034 -20.177,-20.178 0,-11.143 9.034,-20.176997 20.177,-20.176997"
       id="path8"
       inkscape:connector-curvature="0"
       style="fill:#53c1de" />
  </g>
</svg>
